<svg xmlns="http://www.w3.org/2000/svg" viewBox="0 0 81.22 55.4"><defs><style>.cls-1{fill:#231f20;}</style></defs><title>Asset 3</title><g id="Layer_2" data-name="Layer 2"><g id="Layer_1-2" data-name="Layer 1"><path class="cls-1" d="M25.44,55.4,7.72,13.89A54.84,54.84,0,0,1,5.31,7.45a31.38,31.38,0,0,1-.94-4.17c-.73.05-1.46.07-2.19.07S.73,3.38,0,3.43V0H18.1L18,2.65q-3.9.24-4.68,2.38t.78,6.05Q16,15.69,17.71,20t3.82,9.29q1.88,4.36,3.63,8.39t2.69,6.67H28c.57-1.82,1.16-3.57,1.76-5.23s1.31-3.64,2.14-5.93q2.34-6.55,3.94-11.08t2.77-7.72q1.17-3.21,2-5.47c.47-1.35.89-2.49,1.25-3.43s.7-1.72,1-2.34l-3,.16-3,.15V0H52.67V2.57a8.29,8.29,0,0,0-5.27,1.8Q45.57,6,44.08,10.22l-.39,1c-.15.45-.41,1.16-.78,2.15s-.88,2.43-1.56,4.33-1.6,4.46-2.77,7.69-2.65,7.28-4.44,12.17-4,10.82-6.52,17.79Z"/><path class="cls-1" d="M78.57,52.47l-2.65.16a12.21,12.21,0,0,0-.62-4.37c-.53-1.72-1-3.12-1.41-4.21L56.63,0H54.49L38.55,43.42c-.74,1.92-1.37,3.61-1.91,5.07a9.66,9.66,0,0,1-2.07,3.44A4.92,4.92,0,0,1,31,53.17V55.4H45.57V52.32l-3,.15-3.08.16c.36-.88.69-1.69,1-2.42s.62-1.72,1-3l2.73-8.34,20.28-.47,2.73,7.33A12.73,12.73,0,0,1,68,48.88a3.86,3.86,0,0,1-.69,3c-.62.83-1.93,1.27-3.9,1.32V55.4H81.22V52.32ZM45.33,35.54l5.55-15.68c.57-1.51,1.13-3,1.67-4.45s1.08-2.91,1.6-4.37h.15c.58,1.62,1.16,3.22,1.76,4.8s1.18,3.18,1.75,4.8l5.55,14.9Z"/></g></g></svg>